<svg width="138" height="14" viewBox="0 0 138 14" fill="none" xmlns="http://www.w3.org/2000/svg">
<g id="SA SVG 1" clip-path="url(#clip0_14211_14174)">
<g id="Layer 1">
<g id="Group">
<g id="Group_2">
<path id="Vector" d="M2.90209 4.83008H2.40533L0 10.0614H0.591826C0.591826 10.0614 1.27872 8.5688 1.33577 8.44521H3.96927C4.02632 8.5688 4.70608 10.0614 4.70608 10.0614H5.30979L2.90209 4.83008ZM1.56156 7.94132C1.68278 7.6775 2.48614 5.9139 2.65014 5.55263C2.81652 5.9139 3.62464 7.6775 3.74585 7.94132H1.56156Z" fill="#1D1D1B"/>
<path id="Vector_2" d="M8.4068 8.34576C8.4068 8.86391 8.55892 9.24657 8.86315 9.55081C9.26483 9.95724 9.98263 10.1616 10.8834 10.1616C11.3873 10.1616 13.1153 10.0523 13.1153 8.61672C13.1153 7.35463 11.9649 7.23817 10.9476 7.13597C9.89944 7.02901 9.1246 6.91492 9.1246 6.20188C9.1246 5.84773 9.30761 5.59342 9.68077 5.41991C10.0658 5.24165 10.4818 5.2155 10.912 5.2155C11.2447 5.2155 11.8532 5.26779 12.1954 5.61005C12.3547 5.7693 12.4355 6.02124 12.4355 6.27318L12.9631 6.28031C12.9631 5.89765 12.8419 5.51023 12.5995 5.26779C12.1574 4.82571 11.4158 4.73301 10.8692 4.73301C10.1205 4.73301 9.38129 4.89463 8.92732 5.34623C8.68964 5.58391 8.5708 5.8715 8.5708 6.20188C8.5708 7.43544 9.82813 7.53765 10.8145 7.62559C11.2827 7.66837 11.7225 7.7064 12.0505 7.85139C12.3975 8.00113 12.5591 8.25307 12.5591 8.63811C12.5591 8.88292 12.4783 9.0897 12.3167 9.25133C11.934 9.63399 11.1401 9.67678 10.8502 9.67678C10.1371 9.67678 9.56431 9.52228 9.26007 9.21805C9.04141 8.99939 8.9297 8.72843 8.92732 8.34339H8.4068V8.34576ZM13.7618 4.83046V5.34147H15.7892V10.0618H16.3287V5.34147H18.3561V4.83046H13.7641H13.7618ZM20.7282 4.83046L18.3229 10.0642H18.9147C18.9147 10.0642 19.6016 8.57156 19.6586 8.44797H22.2945C22.3515 8.57156 23.0289 10.0642 23.0289 10.0642H23.6326L21.2273 4.83046H20.7306H20.7282ZM20.973 5.55539C21.137 5.91666 21.9475 7.68263 22.0687 7.94408H19.8844C20.0033 7.68263 20.809 5.91666 20.973 5.55539ZM24.9637 4.83046V10.0642H25.508V7.78959H27.6281C28.5598 7.78959 28.7808 7.97736 28.8046 8.79023C28.8236 9.64112 28.8616 9.91921 28.9757 10.0309L29.009 10.0642H29.5723L29.4844 9.89544C29.3988 9.73382 29.3679 9.4082 29.3608 8.56205C29.3536 8.04391 29.0684 7.66599 28.6192 7.502C29.2063 7.23817 29.4463 6.70814 29.4463 6.27081C29.4463 5.30107 28.8545 4.83046 27.6376 4.83046H24.966H24.9637ZM27.6613 5.34147C28.4885 5.34147 28.8902 5.63858 28.8902 6.25179C28.8902 6.94107 28.4623 7.27382 27.5853 7.27382H25.5103V5.3391H27.6637L27.6613 5.34147ZM35.6546 4.83046L33.2492 10.0642H33.8506C33.8506 10.0642 34.5303 8.57156 34.585 8.44797H37.2209C37.2779 8.57156 37.9648 10.0642 37.9648 10.0642H38.559L36.1608 4.83046H35.6546ZM35.9065 5.55539C36.0705 5.91666 36.8739 7.68263 36.9951 7.94408H34.8132C34.9344 7.68263 35.7425 5.91666 35.9089 5.55539H35.9065ZM53.9869 4.83046L51.5816 10.0642H52.1805C52.1805 10.0642 52.8603 8.57156 52.9173 8.44797H55.5532C55.6103 8.57156 56.2972 10.0642 56.2972 10.0642H56.8914L54.4932 4.83046H53.9869ZM54.2388 5.55539C54.4028 5.91666 55.2086 7.68263 55.3274 7.94408H53.1455C53.2643 7.68263 54.0748 5.91666 54.2412 5.55539H54.2388ZM39.8877 4.83046V10.0642H43.6597V9.55318H40.4343V4.83046H39.89H39.8877ZM44.8243 4.83046V10.0642H48.5892V9.55318H45.371V4.83046H44.8267H44.8243ZM49.7181 4.83046V10.0642H50.2577V4.83046H49.7181ZM62.5196 4.83046V9.19666C62.1821 8.78785 58.731 4.83046 58.731 4.83046H58.1867V10.0642H58.7215V5.698C59.059 6.10443 62.5101 10.0642 62.5101 10.0642H63.0544V4.83046H62.5196ZM71.4042 4.83046V10.0642H75.6254V9.55318H71.9461V7.60895H75.4376V7.10507H71.9461V5.34147H75.585V4.83046H71.4042ZM64.5756 7.45446C64.5756 9.10634 65.7236 10.1735 67.4111 10.1735C68.9822 10.1735 69.9329 9.11347 70.0613 8.06292L70.0779 7.93457H69.5098L69.4932 8.02965C69.3126 9.03741 68.5163 9.66252 67.4135 9.66252C65.7878 9.66252 65.1365 8.51927 65.1365 7.44971C65.1365 6.14246 66.0801 5.22976 67.4325 5.22976C68.4617 5.22976 69.2032 5.72176 69.4148 6.54652L69.4362 6.63446H70.0018L69.971 6.49423C69.7143 5.36762 68.7873 4.71875 67.4325 4.71875C65.5097 4.71875 64.5756 6.13771 64.5756 7.45446Z" fill="#1D1D1B"/>
<g id="Group_3">
<path id="Vector_3" d="M85.009 4.80859H85.7744V10.0661H85.2396V5.52401H85.2206L82.9055 10.0661H82.4017L80.0938 5.51926H80.0795V10.0661H79.54V4.80859H80.3291L82.6679 9.3792L85.0043 4.80859H85.009Z" fill="#1D1D1B"/>
<path id="Vector_4" d="M87.7043 4.83789V10.074H91.9327V9.56061H88.251V7.61638H91.7449V7.11488H88.251V5.3489H91.8923V4.83789H87.7067H87.7043Z" fill="#1D1D1B"/>
<path id="Vector_5" d="M99.0512 4.81055H99.8189V10.0681H99.2817V5.52834H99.2651L96.9477 10.0681H96.4462L94.136 5.51884H94.1217V10.0681H93.5845V4.81055H94.3713L96.7124 9.38115L99.0488 4.81055H99.0512Z" fill="#1D1D1B"/>
<path id="Vector_6" d="M102.305 5.32055H104.637C105.231 5.32055 105.654 5.52495 105.654 6.16907C105.654 6.87261 105.186 7.10553 104.454 7.10553H102.303V5.32293L102.305 5.32055ZM101.768 10.0647H104.672C105.478 10.0647 106.4 9.67011 106.4 8.57203C106.4 7.89939 105.984 7.39788 105.297 7.29092V7.27666C105.92 7.12692 106.196 6.65632 106.196 6.14768C106.196 5.39898 105.768 4.82617 104.744 4.82617H101.768V10.0647ZM102.305 7.59991H104.717C105.347 7.59991 105.818 7.81382 105.818 8.5744C105.818 9.29458 105.286 9.57266 104.584 9.57266H102.303V7.59991H102.305Z" fill="#1D1D1B"/>
<path id="Vector_7" d="M108.109 4.83203V10.0658H112.335V9.55238H108.651V7.60815H112.147V7.10664H108.651V5.34305H112.292V4.83203H108.109Z" fill="#1D1D1B"/>
<path id="Vector_8" d="M118.498 9.89786C118.41 9.73386 118.382 9.40824 118.375 8.56209C118.368 8.04633 118.082 7.66841 117.633 7.50441C118.223 7.24296 118.46 6.71056 118.46 6.27323C118.46 5.30349 117.871 4.82812 116.654 4.82812H113.98V10.0666H114.524V7.79201H116.642C117.576 7.79201 117.797 7.9774 117.821 8.79027C117.84 9.64117 117.876 9.91925 117.992 10.0333L118.025 10.0666H118.586L118.498 9.89786ZM116.602 7.27624H114.524V5.34152H116.678C117.505 5.34152 117.906 5.64099 117.906 6.25183C117.906 6.94111 117.481 7.27386 116.602 7.27386V7.27624Z" fill="#1D1D1B"/>
</g>
</g>
<g id="Group_4">
<g id="Group_5">
<path id="Vector_9" d="M133.681 8.06332C133.501 7.22668 133.375 6.35915 133.315 5.47735C133.254 4.59318 133.256 3.72564 133.32 2.86523L135.001 5.35851L133.681 8.06094V8.06332Z" fill="#DADADA"/>
<path id="Vector_10" d="M133.32 2.86523C134.135 3.12668 134.951 3.45231 135.742 3.83973C136.538 4.22715 137.289 4.66448 138 5.14935L135 5.35851L133.32 2.86523Z" fill="#9D9D9C"/>
<path id="Vector_11" d="M138 5.14844C137.365 5.72363 136.676 6.26554 135.944 6.75992C135.21 7.25429 134.456 7.68687 133.681 8.06003L135.001 5.3576L138 5.14844Z" fill="#575756"/>
</g>
<g id="Group_6">
<path id="Vector_12" d="M131.188 10.2713C131.93 9.84105 132.714 9.45363 133.534 9.12325C134.356 8.7905 135.184 8.52667 136.018 8.32227L134.166 10.6919L131.188 10.2736V10.2713Z" fill="#DADADA"/>
<path id="Vector_13" d="M136.018 8.32227C136.02 9.18029 135.963 10.0526 135.84 10.9273C135.716 11.8043 135.533 12.6552 135.293 13.4799L134.166 10.6919L136.018 8.32227Z" fill="#9D9D9C"/>
<path id="Vector_14" d="M135.293 13.4802C134.549 13.0547 133.822 12.5675 133.125 12.0232C132.426 11.4789 131.782 10.8942 131.188 10.2715L134.166 10.6898L135.293 13.4778V13.4802Z" fill="#575756"/>
</g>
<g id="Group_7">
<path id="Vector_15" d="M128.317 8.58398C128.956 9.15442 129.567 9.78427 130.133 10.4593C130.703 11.1391 131.209 11.8426 131.663 12.5746L128.837 11.5455L128.317 8.58398Z" fill="#9D9D9C"/>
<path id="Vector_16" d="M131.666 12.5741C130.851 12.8427 130.002 13.0566 129.132 13.2087C128.26 13.3632 127.395 13.4511 126.534 13.4773L128.837 11.5449L131.663 12.5741H131.666Z" fill="#575756"/>
<path id="Vector_17" d="M126.534 13.4778C126.71 12.6388 126.948 11.7951 127.25 10.9679C127.552 10.136 127.908 9.34219 128.317 8.58398L128.837 11.5455L126.534 13.4778Z" fill="#DADADA"/>
</g>
<g id="Group_8">
<path id="Vector_18" d="M129.037 5.32812C128.69 6.11247 128.284 6.88731 127.815 7.63601C127.345 8.38708 126.834 9.08824 126.278 9.74662L126.382 6.74233L129.037 5.3305V5.32812Z" fill="#575756"/>
<path id="Vector_19" d="M126.275 9.74366C125.769 9.05201 125.303 8.31044 124.887 7.53085C124.471 6.74888 124.119 5.95265 123.829 5.14453L126.38 6.73937L126.275 9.74366Z" fill="#9D9D9C"/>
<path id="Vector_20" d="M123.829 5.14536C124.683 5.05266 125.557 5.01939 126.439 5.05029C127.323 5.08119 128.189 5.17388 129.035 5.32837L126.38 6.7402L123.829 5.14536Z" fill="#DADADA"/>
</g>
<g id="Group_9">
<path id="Vector_21" d="M132.35 5.00871C131.497 4.92077 130.634 4.77341 129.779 4.5595C128.918 4.34558 128.093 4.07463 127.297 3.74901L130.187 2.92188L132.35 5.01109V5.00871Z" fill="#575756"/>
<path id="Vector_22" d="M127.297 3.74628C127.799 3.05225 128.36 2.37723 128.973 1.74263C129.588 1.10564 130.235 0.525699 130.917 -0.00195312L130.19 2.91677L127.3 3.7439L127.297 3.74628Z" fill="#DADADA"/>
<path id="Vector_23" d="M130.917 0C131.269 0.781971 131.571 1.60435 131.813 2.45287C132.058 3.30377 132.236 4.15466 132.35 5.00794L130.187 2.91872L130.915 0L130.917 0Z" fill="#9D9D9C"/>
</g>
</g>
</g>
</g>
</g>
<defs>
<clipPath id="clip0_14211_14174">
<rect width="138" height="13.4789" fill="white"/>
</clipPath>
</defs>
</svg>
