<svg xmlns="http://www.w3.org/2000/svg" width="57.809" height="50.602" viewBox="0 0 57.809 50.602">
  <g id="Tata_Logo" data-name="Tata Logo" transform="translate(-14.616 -22.504)">
    <path id="Path_60" data-name="Path 60" d="M14.616,286.732H28.533v4.235H24.541v10.178h-5.8V290.967H14.616Z" transform="translate(0 -228.039)" fill="#486aae"/>
    <path id="Path_61" data-name="Path 61" d="M114.134,292.556l-2.93,8.59h-5.569l5.462-14.413h6.048l5.594,14.413H117.1Z" transform="translate(-78.553 -228.039)" fill="#486aae"/>
    <path id="Path_62" data-name="Path 62" d="M220.8,286.732h13.917v4.235H230.73v10.178h-5.8V290.967H220.8Z" transform="translate(-177.949 -228.039)" fill="#486aae"/>
    <path id="Path_63" data-name="Path 63" d="M320.33,292.556l-2.931,8.59H311.83l5.464-14.413h6.047l5.592,14.413H323.3Z" transform="translate(-256.507 -228.039)" fill="#486aae"/>
    <path id="Path_64" data-name="Path 64" d="M117.156,32.218A12.9,12.9,0,0,0,115.1,29.3a20.18,20.18,0,0,0-7.807-4.968,31.831,31.831,0,0,0-21.253,0A20.178,20.178,0,0,0,78.231,29.3a12.919,12.919,0,0,0-2.057,2.922,90.446,90.446,0,0,1,17.878-2.474,1.578,1.578,0,0,1,1.365.556,6.605,6.605,0,0,1,.317,2.746l-.188,18.376c.372.012.746.02,1.12.02s.753-.006,1.125-.018L97.6,33.049a6.568,6.568,0,0,1,.316-2.746,1.578,1.578,0,0,1,1.364-.556,90.4,90.4,0,0,1,17.873,2.472" transform="translate(-53.127)" fill="#486aae" fill-rule="evenodd"/>
    <path id="Path_65" data-name="Path 65" d="M271.628,99.079a76.894,76.894,0,0,0-14.163-1.853c-3.5-.194-3.542,1.054-3.193,3.44.023.146.051.329.084.538,1.173,6.946,2.633,12.923,2.884,13.937,8.523-1.948,14.67-7.35,14.67-13.7a10.136,10.136,0,0,0-.283-2.367" transform="translate(-206.711 -64.471)" fill="#486aae" fill-rule="evenodd"/>
    <path id="Path_66" data-name="Path 66" d="M85.275,100.665c.349-2.386.3-3.634-3.191-3.44A76.876,76.876,0,0,0,67.917,99.08a10.135,10.135,0,0,0-.284,2.366,11.26,11.26,0,0,0,3.227,7.676,20.186,20.186,0,0,0,7.809,4.969,28.173,28.173,0,0,0,3.635,1.06c.236-.95,1.73-7.052,2.915-14.122.022-.135.042-.26.056-.364" transform="translate(-45.756 -64.471)" fill="#486aae" fill-rule="evenodd"/>
  </g>
</svg>
